<?xml version="1.0" encoding="UTF-8"?>
<svg xmlns="http://www.w3.org/2000/svg" xmlns:xlink="http://www.w3.org/1999/xlink" width="375pt" height="374.999991pt" viewBox="0 0 375 374.999991" version="1.2">
<defs>
<clipPath id="clip1">
  <path d="M 313.519531 48.6875 C 306.039062 41.898438 294.078125 44.351562 290.039062 53.609375 C 275.839844 86.15625 256.554688 121.160156 235.292969 134.210938 C 211.578125 148.757812 179.632812 158.570312 179.183594 158.628906 C 179.183594 158.628906 206.898438 120.707031 213.441406 105.308594 C 214.539062 102.660156 212.453125 99.757812 209.578125 99.898438 L 140.640625 103.335938 C 131.195312 103.816406 122.792969 109.539062 118.871094 118.167969 L 90.339844 181.070312 C 84.503906 193.789062 73.871094 203.882812 60.535156 208.957031 C 78.300781 176.054688 87.632812 114.503906 90.421875 90.59375 C 91.210938 84.050781 95.894531 78.664062 102.238281 76.972656 C 130.683594 69.359375 187.316406 54.347656 236.65625 33.964844 C 249.773438 28.546875 248.476562 9.570312 234.742188 6.003906 C 218.546875 1.796875 201.503906 -0.292969 183.925781 0.0351562 C 84.886719 1.875 3.503906 81.914062 0.113281 180.914062 C -1.863281 238.570312 22.207031 290.65625 61.457031 326.308594 C 68.933594 333.097656 80.894531 330.636719 84.933594 321.378906 C 99.132812 288.824219 118.417969 253.835938 139.679688 240.761719 C 163.394531 226.214844 195.339844 216.429688 195.789062 216.371094 C 195.789062 216.371094 168.101562 254.296875 161.5625 269.691406 C 160.433594 272.339844 162.519531 275.246094 165.394531 275.105469 L 234.332031 271.636719 C 243.777344 271.183594 252.179688 265.460938 256.101562 256.832031 L 284.632812 193.929688 C 290.472656 181.210938 301.101562 171.117188 314.4375 166.015625 C 296.671875 198.949219 287.339844 260.5 284.550781 284.410156 C 283.789062 290.949219 279.109375 296.308594 272.734375 298.027344 C 244.3125 305.640625 187.675781 320.65625 138.316406 341.042969 C 125.152344 346.476562 126.542969 365.449219 140.332031 369.023438 C 155.398438 372.925781 171.203125 375 187.5 375 C 291.035156 375 375 291.0625 375 187.5 C 375 132.46875 351.292969 82.976562 313.519531 48.6875 Z M 133 194.492188 C 140.386719 174.898438 146.195312 154.203125 150.902344 132.773438 L 130.800781 177.125 C 125.160156 189.417969 114.898438 199.171875 102.011719 204.078125 C 108.441406 187.050781 113.742188 169.257812 118.222656 150.875 C 120.535156 141.402344 123.667969 132.125 127.699219 123.214844 L 128.347656 121.777344 C 130.882812 116.136719 136.355469 112.414062 142.527344 112.105469 L 155.214844 111.484375 L 161.589844 111.148438 L 187.105469 110.074219 C 188.996094 109.992188 190.261719 111.964844 189.390625 113.628906 C 182.511719 126.824219 159.757812 169.425781 159.757812 169.425781 C 154.511719 180.875 144.980469 189.925781 133 194.492188 Z M 256.75 224.125 C 254.4375 233.601562 251.335938 242.875 247.304688 251.785156 L 246.65625 253.195312 C 244.089844 258.863281 238.621094 262.585938 232.445312 262.894531 L 219.757812 263.515625 L 213.382812 263.824219 L 187.867188 264.925781 C 185.976562 265.011719 184.710938 263.035156 185.582031 261.371094 C 192.464844 248.175781 215.246094 205.574219 215.246094 205.574219 C 220.488281 194.125 229.992188 185.074219 241.972656 180.507812 C 234.585938 200.105469 228.777344 220.769531 224.070312 242.199219 L 244.203125 197.847656 C 249.8125 185.554688 260.074219 175.828125 272.960938 170.921875 C 266.53125 187.953125 261.230469 205.742188 256.75 224.125 Z M 256.75 224.125 "/>
</clipPath>
<linearGradient id="linear0" gradientUnits="userSpaceOnUse" x1="0" y1="52.534" x2="105.067002" y2="52.534" gradientTransform="matrix(3.569151,0,0,3.569151,0.0000045,0)">
<stop offset="0" style="stop-color:rgb(8.198547%,78.399658%,62.69989%);stop-opacity:1;"/>
<stop offset="0.015625" style="stop-color:rgb(8.143616%,78.251648%,62.693787%);stop-opacity:1;"/>
<stop offset="0.03125" style="stop-color:rgb(8.035278%,77.958679%,62.68158%);stop-opacity:1;"/>
<stop offset="0.046875" style="stop-color:rgb(7.925415%,77.664185%,62.670898%);stop-opacity:1;"/>
<stop offset="0.0625" style="stop-color:rgb(7.815552%,77.371216%,62.660217%);stop-opacity:1;"/>
<stop offset="0.078125" style="stop-color:rgb(7.707214%,77.076721%,62.649536%);stop-opacity:1;"/>
<stop offset="0.09375" style="stop-color:rgb(7.597351%,76.783752%,62.638855%);stop-opacity:1;"/>
<stop offset="0.109375" style="stop-color:rgb(7.487488%,76.489258%,62.628174%);stop-opacity:1;"/>
<stop offset="0.125" style="stop-color:rgb(7.37915%,76.196289%,62.615967%);stop-opacity:1;"/>
<stop offset="0.140625" style="stop-color:rgb(7.269287%,75.901794%,62.605286%);stop-opacity:1;"/>
<stop offset="0.15625" style="stop-color:rgb(7.159424%,75.608826%,62.594604%);stop-opacity:1;"/>
<stop offset="0.171875" style="stop-color:rgb(7.051086%,75.314331%,62.583923%);stop-opacity:1;"/>
<stop offset="0.1875" style="stop-color:rgb(6.941223%,75.021362%,62.573242%);stop-opacity:1;"/>
<stop offset="0.203125" style="stop-color:rgb(6.83136%,74.726868%,62.562561%);stop-opacity:1;"/>
<stop offset="0.21875" style="stop-color:rgb(6.723022%,74.433899%,62.550354%);stop-opacity:1;"/>
<stop offset="0.234375" style="stop-color:rgb(6.613159%,74.139404%,62.539673%);stop-opacity:1;"/>
<stop offset="0.25" style="stop-color:rgb(6.503296%,73.846436%,62.528992%);stop-opacity:1;"/>
<stop offset="0.265625" style="stop-color:rgb(6.394958%,73.551941%,62.518311%);stop-opacity:1;"/>
<stop offset="0.28125" style="stop-color:rgb(6.285095%,73.258972%,62.507629%);stop-opacity:1;"/>
<stop offset="0.296875" style="stop-color:rgb(6.175232%,72.964478%,62.496948%);stop-opacity:1;"/>
<stop offset="0.3125" style="stop-color:rgb(6.066895%,72.669983%,62.484741%);stop-opacity:1;"/>
<stop offset="0.328125" style="stop-color:rgb(5.957031%,72.377014%,62.47406%);stop-opacity:1;"/>
<stop offset="0.34375" style="stop-color:rgb(5.847168%,72.08252%,62.463379%);stop-opacity:1;"/>
<stop offset="0.359375" style="stop-color:rgb(5.737305%,71.789551%,62.452698%);stop-opacity:1;"/>
<stop offset="0.375" style="stop-color:rgb(5.628967%,71.495056%,62.442017%);stop-opacity:1;"/>
<stop offset="0.390625" style="stop-color:rgb(5.519104%,71.202087%,62.431335%);stop-opacity:1;"/>
<stop offset="0.40625" style="stop-color:rgb(5.409241%,70.907593%,62.419128%);stop-opacity:1;"/>
<stop offset="0.421875" style="stop-color:rgb(5.300903%,70.614624%,62.408447%);stop-opacity:1;"/>
<stop offset="0.4375" style="stop-color:rgb(5.19104%,70.320129%,62.397766%);stop-opacity:1;"/>
<stop offset="0.453125" style="stop-color:rgb(5.081177%,70.027161%,62.387085%);stop-opacity:1;"/>
<stop offset="0.46875" style="stop-color:rgb(4.972839%,69.732666%,62.376404%);stop-opacity:1;"/>
<stop offset="0.484375" style="stop-color:rgb(4.862976%,69.439697%,62.365723%);stop-opacity:1;"/>
<stop offset="0.5" style="stop-color:rgb(4.753113%,69.145203%,62.353516%);stop-opacity:1;"/>
<stop offset="0.515625" style="stop-color:rgb(4.644775%,68.852234%,62.342834%);stop-opacity:1;"/>
<stop offset="0.53125" style="stop-color:rgb(4.534912%,68.557739%,62.332153%);stop-opacity:1;"/>
<stop offset="0.546875" style="stop-color:rgb(4.425049%,68.264771%,62.321472%);stop-opacity:1;"/>
<stop offset="0.5625" style="stop-color:rgb(4.316711%,67.970276%,62.310791%);stop-opacity:1;"/>
<stop offset="0.578125" style="stop-color:rgb(4.206848%,67.677307%,62.30011%);stop-opacity:1;"/>
<stop offset="0.59375" style="stop-color:rgb(4.096985%,67.382812%,62.287903%);stop-opacity:1;"/>
<stop offset="0.609375" style="stop-color:rgb(3.988647%,67.089844%,62.277222%);stop-opacity:1;"/>
<stop offset="0.625" style="stop-color:rgb(3.878784%,66.795349%,62.266541%);stop-opacity:1;"/>
<stop offset="0.640625" style="stop-color:rgb(3.768921%,66.50238%,62.255859%);stop-opacity:1;"/>
<stop offset="0.65625" style="stop-color:rgb(3.660583%,66.207886%,62.245178%);stop-opacity:1;"/>
<stop offset="0.671875" style="stop-color:rgb(3.55072%,65.914917%,62.234497%);stop-opacity:1;"/>
<stop offset="0.6875" style="stop-color:rgb(3.440857%,65.620422%,62.22229%);stop-opacity:1;"/>
<stop offset="0.703125" style="stop-color:rgb(3.33252%,65.327454%,62.211609%);stop-opacity:1;"/>
<stop offset="0.71875" style="stop-color:rgb(3.222656%,65.032959%,62.200928%);stop-opacity:1;"/>
<stop offset="0.734375" style="stop-color:rgb(3.112793%,64.73999%,62.190247%);stop-opacity:1;"/>
<stop offset="0.75" style="stop-color:rgb(3.00293%,64.445496%,62.179565%);stop-opacity:1;"/>
<stop offset="0.765625" style="stop-color:rgb(2.894592%,64.152527%,62.168884%);stop-opacity:1;"/>
<stop offset="0.78125" style="stop-color:rgb(2.784729%,63.858032%,62.156677%);stop-opacity:1;"/>
<stop offset="0.796875" style="stop-color:rgb(2.674866%,63.565063%,62.145996%);stop-opacity:1;"/>
<stop offset="0.8125" style="stop-color:rgb(2.566528%,63.270569%,62.135315%);stop-opacity:1;"/>
<stop offset="0.828125" style="stop-color:rgb(2.456665%,62.9776%,62.124634%);stop-opacity:1;"/>
<stop offset="0.84375" style="stop-color:rgb(2.346802%,62.683105%,62.113953%);stop-opacity:1;"/>
<stop offset="0.859375" style="stop-color:rgb(2.238464%,62.390137%,62.101746%);stop-opacity:1;"/>
<stop offset="0.875" style="stop-color:rgb(2.128601%,62.095642%,62.091064%);stop-opacity:1;"/>
<stop offset="0.890625" style="stop-color:rgb(2.018738%,61.802673%,62.080383%);stop-opacity:1;"/>
<stop offset="0.90625" style="stop-color:rgb(1.9104%,61.508179%,62.069702%);stop-opacity:1;"/>
<stop offset="0.921875" style="stop-color:rgb(1.800537%,61.21521%,62.059021%);stop-opacity:1;"/>
<stop offset="0.9375" style="stop-color:rgb(1.690674%,60.920715%,62.04834%);stop-opacity:1;"/>
<stop offset="0.953125" style="stop-color:rgb(1.582336%,60.626221%,62.036133%);stop-opacity:1;"/>
<stop offset="0.96875" style="stop-color:rgb(1.472473%,60.333252%,62.025452%);stop-opacity:1;"/>
<stop offset="0.984375" style="stop-color:rgb(1.36261%,60.038757%,62.014771%);stop-opacity:1;"/>
<stop offset="1" style="stop-color:rgb(1.254272%,59.745789%,62.004089%);stop-opacity:1;"/>
</linearGradient>
</defs>
<g id="surface1">
<g clip-path="url(#clip1)" clip-rule="nonzero">
<rect x="0" y="0" width="375" height="374.999991" style="fill:url(#linear0);stroke:none;"/>
</g>
</g>
</svg>
